<mxfile host="Electron" modified="2023-05-22T18:20:28.518Z" agent="Mozilla/5.0 (Macintosh; Intel Mac OS X 10_15_7) AppleWebKit/537.36 (KHTML, like Gecko) draw.io/21.2.8 Chrome/112.0.5615.165 Electron/24.2.0 Safari/537.36" etag="YOrAp3CZPWV4nQsuhZga" version="21.2.8" type="device">
  <diagram name="페이지-1" id="gXcB5Lyos5XIqy0Nvv86">
    <mxGraphModel dx="1194" dy="674" grid="1" gridSize="10" guides="1" tooltips="1" connect="1" arrows="1" fold="1" page="1" pageScale="1" pageWidth="1169" pageHeight="827" math="0" shadow="0">
      <root>
        <mxCell id="0" />
        <mxCell id="1" parent="0" />
        <mxCell id="bPdfdv-mbBdxf3hqXRl3-1" value="&lt;b&gt;sd&amp;nbsp; &lt;/b&gt;add new member" style="shape=umlFrame;whiteSpace=wrap;html=1;pointerEvents=0;recursiveResize=0;container=1;collapsible=0;width=160;" parent="1" vertex="1">
          <mxGeometry x="20" y="10" width="1120" height="330" as="geometry" />
        </mxCell>
        <mxCell id="bPdfdv-mbBdxf3hqXRl3-2" value="Guest" style="shape=umlActor;verticalLabelPosition=bottom;verticalAlign=top;html=1;outlineConnect=0;" parent="bPdfdv-mbBdxf3hqXRl3-1" vertex="1">
          <mxGeometry x="30" y="154.5" width="26" height="42.5" as="geometry" />
        </mxCell>
        <mxCell id="bPdfdv-mbBdxf3hqXRl3-3" value=":AddMemberUI" style="fontStyle=1;whiteSpace=wrap;html=1;" parent="bPdfdv-mbBdxf3hqXRl3-1" vertex="1">
          <mxGeometry x="123" y="154.5" width="140" height="30" as="geometry" />
        </mxCell>
        <mxCell id="bPdfdv-mbBdxf3hqXRl3-4" value=":Member" style="fontStyle=1;whiteSpace=wrap;html=1;" parent="bPdfdv-mbBdxf3hqXRl3-1" vertex="1">
          <mxGeometry x="610" y="154.5" width="140" height="30" as="geometry" />
        </mxCell>
        <mxCell id="bPdfdv-mbBdxf3hqXRl3-5" value=":AddMember" style="fontStyle=1;whiteSpace=wrap;html=1;" parent="bPdfdv-mbBdxf3hqXRl3-1" vertex="1">
          <mxGeometry x="373" y="154.5" width="140" height="30" as="geometry" />
        </mxCell>
        <mxCell id="bPdfdv-mbBdxf3hqXRl3-6" value="newCompMem:CompMember" style="fontStyle=1;whiteSpace=wrap;html=1;" parent="bPdfdv-mbBdxf3hqXRl3-1" vertex="1">
          <mxGeometry x="930" y="260" width="173" height="30" as="geometry" />
        </mxCell>
        <mxCell id="bPdfdv-mbBdxf3hqXRl3-7" value="" style="html=1;verticalAlign=bottom;labelBackgroundColor=none;endArrow=block;endFill=1;rounded=0;" parent="bPdfdv-mbBdxf3hqXRl3-1" edge="1">
          <mxGeometry width="160" relative="1" as="geometry">
            <mxPoint x="70" y="144" as="sourcePoint" />
            <mxPoint x="114" y="144" as="targetPoint" />
          </mxGeometry>
        </mxCell>
        <mxCell id="bPdfdv-mbBdxf3hqXRl3-8" value="" style="html=1;verticalAlign=bottom;labelBackgroundColor=none;endArrow=block;endFill=1;rounded=0;" parent="bPdfdv-mbBdxf3hqXRl3-1" edge="1">
          <mxGeometry width="160" relative="1" as="geometry">
            <mxPoint x="270" y="145" as="sourcePoint" />
            <mxPoint x="367" y="145" as="targetPoint" />
          </mxGeometry>
        </mxCell>
        <mxCell id="bPdfdv-mbBdxf3hqXRl3-9" value="" style="html=1;verticalAlign=bottom;labelBackgroundColor=none;endArrow=block;endFill=1;rounded=0;" parent="bPdfdv-mbBdxf3hqXRl3-1" edge="1">
          <mxGeometry width="160" relative="1" as="geometry">
            <mxPoint x="369" y="199.5" as="sourcePoint" />
            <mxPoint x="269" y="199.5" as="targetPoint" />
          </mxGeometry>
        </mxCell>
        <mxCell id="bPdfdv-mbBdxf3hqXRl3-10" value="1 : startInterface()" style="text;html=1;strokeColor=none;fillColor=none;align=center;verticalAlign=middle;whiteSpace=wrap;rounded=0;" parent="bPdfdv-mbBdxf3hqXRl3-1" vertex="1">
          <mxGeometry x="250" y="199.5" width="150" height="30" as="geometry" />
        </mxCell>
        <mxCell id="bPdfdv-mbBdxf3hqXRl3-11" value="2 : createNewMember()" style="text;html=1;strokeColor=none;fillColor=none;align=center;verticalAlign=middle;whiteSpace=wrap;rounded=0;" parent="bPdfdv-mbBdxf3hqXRl3-1" vertex="1">
          <mxGeometry x="30" y="109.5" width="150" height="30" as="geometry" />
        </mxCell>
        <mxCell id="bPdfdv-mbBdxf3hqXRl3-12" value="2.1.1 : &lt;br&gt;[memType == True] addNewGeneralMember()&lt;br&gt;[memType == False] addNewCompanyMember()" style="text;html=1;strokeColor=none;fillColor=none;align=center;verticalAlign=middle;whiteSpace=wrap;rounded=0;" parent="bPdfdv-mbBdxf3hqXRl3-1" vertex="1">
          <mxGeometry x="203" y="100" width="267" height="30" as="geometry" />
        </mxCell>
        <mxCell id="bPdfdv-mbBdxf3hqXRl3-13" value="2.1.1.1.1 : &lt;br&gt;[memType == True]createGeneralMember()" style="text;html=1;strokeColor=none;fillColor=none;align=center;verticalAlign=middle;whiteSpace=wrap;rounded=0;" parent="bPdfdv-mbBdxf3hqXRl3-1" vertex="1">
          <mxGeometry x="620" y="50" width="250" height="30" as="geometry" />
        </mxCell>
        <mxCell id="bPdfdv-mbBdxf3hqXRl3-14" value="" style="endArrow=none;html=1;rounded=0;entryX=0;entryY=0.5;entryDx=0;entryDy=0;exitX=1;exitY=0.3333333333333333;exitDx=0;exitDy=0;exitPerimeter=0;" parent="bPdfdv-mbBdxf3hqXRl3-1" source="bPdfdv-mbBdxf3hqXRl3-2" target="bPdfdv-mbBdxf3hqXRl3-3" edge="1">
          <mxGeometry width="50" height="50" relative="1" as="geometry">
            <mxPoint x="83" y="172" as="sourcePoint" />
            <mxPoint x="113" y="152" as="targetPoint" />
          </mxGeometry>
        </mxCell>
        <mxCell id="bPdfdv-mbBdxf3hqXRl3-15" value="" style="endArrow=none;html=1;rounded=0;entryX=0;entryY=0.5;entryDx=0;entryDy=0;exitX=1;exitY=0.3333333333333333;exitDx=0;exitDy=0;exitPerimeter=0;" parent="bPdfdv-mbBdxf3hqXRl3-1" target="bPdfdv-mbBdxf3hqXRl3-5" edge="1">
          <mxGeometry width="50" height="50" relative="1" as="geometry">
            <mxPoint x="263" y="169" as="sourcePoint" />
            <mxPoint x="330" y="170" as="targetPoint" />
          </mxGeometry>
        </mxCell>
        <mxCell id="bPdfdv-mbBdxf3hqXRl3-16" value="" style="endArrow=none;html=1;rounded=0;entryX=0;entryY=0.5;entryDx=0;entryDy=0;exitX=1;exitY=0.5;exitDx=0;exitDy=0;" parent="bPdfdv-mbBdxf3hqXRl3-1" source="bPdfdv-mbBdxf3hqXRl3-5" target="bPdfdv-mbBdxf3hqXRl3-4" edge="1">
          <mxGeometry width="50" height="50" relative="1" as="geometry">
            <mxPoint x="533" y="169" as="sourcePoint" />
            <mxPoint x="600" y="170" as="targetPoint" />
          </mxGeometry>
        </mxCell>
        <mxCell id="bPdfdv-mbBdxf3hqXRl3-17" value="newGenMem:GenMember" style="fontStyle=1;whiteSpace=wrap;html=1;" parent="bPdfdv-mbBdxf3hqXRl3-1" vertex="1">
          <mxGeometry x="930" y="50" width="163" height="30" as="geometry" />
        </mxCell>
        <mxCell id="bPdfdv-mbBdxf3hqXRl3-18" value="" style="endArrow=none;html=1;rounded=0;exitX=1;exitY=0.5;exitDx=0;exitDy=0;entryX=0;entryY=0.5;entryDx=0;entryDy=0;" parent="bPdfdv-mbBdxf3hqXRl3-1" source="bPdfdv-mbBdxf3hqXRl3-4" target="bPdfdv-mbBdxf3hqXRl3-17" edge="1">
          <mxGeometry width="50" height="50" relative="1" as="geometry">
            <mxPoint x="713" y="184.5" as="sourcePoint" />
            <mxPoint x="713" y="271.5" as="targetPoint" />
          </mxGeometry>
        </mxCell>
        <mxCell id="bPdfdv-mbBdxf3hqXRl3-19" value="" style="endArrow=none;html=1;rounded=0;exitX=1;exitY=0.5;exitDx=0;exitDy=0;entryX=0;entryY=0.5;entryDx=0;entryDy=0;" parent="bPdfdv-mbBdxf3hqXRl3-1" source="bPdfdv-mbBdxf3hqXRl3-4" target="bPdfdv-mbBdxf3hqXRl3-6" edge="1">
          <mxGeometry width="50" height="50" relative="1" as="geometry">
            <mxPoint x="824" y="294.5" as="sourcePoint" />
            <mxPoint x="920" y="294.5" as="targetPoint" />
          </mxGeometry>
        </mxCell>
        <mxCell id="bPdfdv-mbBdxf3hqXRl3-20" value="2.1.1.1 : &lt;br&gt;[memType == True] addNewGeneralMember()&lt;br style=&quot;border-color: var(--border-color);&quot;&gt;[memType == False] addNewCompanyMember(" style="text;html=1;strokeColor=none;fillColor=none;align=center;verticalAlign=middle;whiteSpace=wrap;rounded=0;" parent="bPdfdv-mbBdxf3hqXRl3-1" vertex="1">
          <mxGeometry x="470" y="100" width="300" height="30" as="geometry" />
        </mxCell>
        <mxCell id="bPdfdv-mbBdxf3hqXRl3-21" value="" style="endArrow=classic;html=1;rounded=0;exitX=1;exitY=0.5;exitDx=0;exitDy=0;" parent="bPdfdv-mbBdxf3hqXRl3-1" edge="1">
          <mxGeometry width="50" height="50" relative="1" as="geometry">
            <mxPoint x="768" y="142" as="sourcePoint" />
            <mxPoint x="912" y="59" as="targetPoint" />
          </mxGeometry>
        </mxCell>
        <mxCell id="bPdfdv-mbBdxf3hqXRl3-22" value="" style="endArrow=classic;html=1;rounded=0;entryX=0;entryY=0.5;entryDx=0;entryDy=0;" parent="bPdfdv-mbBdxf3hqXRl3-1" edge="1">
          <mxGeometry width="50" height="50" relative="1" as="geometry">
            <mxPoint x="757" y="190" as="sourcePoint" />
            <mxPoint x="916" y="288" as="targetPoint" />
          </mxGeometry>
        </mxCell>
        <mxCell id="bPdfdv-mbBdxf3hqXRl3-23" value="2.1.1.1.1: &lt;br&gt;[memType == False]createCompanyMember()" style="text;html=1;strokeColor=none;fillColor=none;align=center;verticalAlign=middle;whiteSpace=wrap;rounded=0;" parent="bPdfdv-mbBdxf3hqXRl3-1" vertex="1">
          <mxGeometry x="590" y="240" width="250" height="30" as="geometry" />
        </mxCell>
        <mxCell id="bPdfdv-mbBdxf3hqXRl3-24" value="" style="html=1;verticalAlign=bottom;labelBackgroundColor=none;endArrow=block;endFill=1;rounded=0;" parent="bPdfdv-mbBdxf3hqXRl3-1" edge="1">
          <mxGeometry width="160" relative="1" as="geometry">
            <mxPoint x="514" y="143.5" as="sourcePoint" />
            <mxPoint x="611" y="143.5" as="targetPoint" />
          </mxGeometry>
        </mxCell>
        <mxCell id="jLVkTdFOZGAqYjLsURqS-8" value="2 .1: addMember()" style="text;html=1;strokeColor=none;fillColor=none;align=center;verticalAlign=middle;whiteSpace=wrap;rounded=0;" vertex="1" parent="bPdfdv-mbBdxf3hqXRl3-1">
          <mxGeometry x="251" y="66" width="150" height="30" as="geometry" />
        </mxCell>
        <mxCell id="bPdfdv-mbBdxf3hqXRl3-25" value="&lt;b&gt;sd&amp;nbsp; &lt;/b&gt;delete member" style="shape=umlFrame;whiteSpace=wrap;html=1;pointerEvents=0;recursiveResize=0;container=1;collapsible=0;width=160;" parent="1" vertex="1">
          <mxGeometry x="17" y="370" width="810" height="230" as="geometry" />
        </mxCell>
        <mxCell id="bPdfdv-mbBdxf3hqXRl3-26" value="Member" style="shape=umlActor;verticalLabelPosition=bottom;verticalAlign=top;html=1;outlineConnect=0;" parent="bPdfdv-mbBdxf3hqXRl3-25" vertex="1">
          <mxGeometry x="20" y="96.25" width="26" height="42.5" as="geometry" />
        </mxCell>
        <mxCell id="bPdfdv-mbBdxf3hqXRl3-27" value=": DeleteMemberUI" style="fontStyle=1;whiteSpace=wrap;html=1;" parent="bPdfdv-mbBdxf3hqXRl3-25" vertex="1">
          <mxGeometry x="113" y="102.5" width="140" height="30" as="geometry" />
        </mxCell>
        <mxCell id="bPdfdv-mbBdxf3hqXRl3-28" value=":Member" style="fontStyle=1;whiteSpace=wrap;html=1;" parent="bPdfdv-mbBdxf3hqXRl3-25" vertex="1">
          <mxGeometry x="643" y="102.5" width="140" height="30" as="geometry" />
        </mxCell>
        <mxCell id="bPdfdv-mbBdxf3hqXRl3-29" value=":DeleteMember" style="fontStyle=1;whiteSpace=wrap;html=1;" parent="bPdfdv-mbBdxf3hqXRl3-25" vertex="1">
          <mxGeometry x="363" y="102.5" width="140" height="30" as="geometry" />
        </mxCell>
        <mxCell id="bPdfdv-mbBdxf3hqXRl3-30" value="" style="endArrow=none;startArrow=none;endFill=0;startFill=0;endSize=8;html=1;verticalAlign=bottom;labelBackgroundColor=none;strokeWidth=3;rounded=0;" parent="bPdfdv-mbBdxf3hqXRl3-25" edge="1">
          <mxGeometry width="160" relative="1" as="geometry">
            <mxPoint x="53" y="117" as="sourcePoint" />
            <mxPoint x="113" y="117" as="targetPoint" />
          </mxGeometry>
        </mxCell>
        <mxCell id="bPdfdv-mbBdxf3hqXRl3-31" value="" style="endArrow=none;startArrow=none;endFill=0;startFill=0;endSize=8;html=1;verticalAlign=bottom;labelBackgroundColor=none;strokeWidth=3;rounded=0;entryX=0;entryY=0.5;entryDx=0;entryDy=0;" parent="bPdfdv-mbBdxf3hqXRl3-25" target="bPdfdv-mbBdxf3hqXRl3-29" edge="1">
          <mxGeometry width="160" relative="1" as="geometry">
            <mxPoint x="253" y="117" as="sourcePoint" />
            <mxPoint x="360" y="117" as="targetPoint" />
          </mxGeometry>
        </mxCell>
        <mxCell id="bPdfdv-mbBdxf3hqXRl3-32" value="" style="endArrow=none;startArrow=none;endFill=0;startFill=0;endSize=8;html=1;verticalAlign=bottom;labelBackgroundColor=none;strokeWidth=3;rounded=0;entryX=0;entryY=0.5;entryDx=0;entryDy=0;" parent="bPdfdv-mbBdxf3hqXRl3-25" target="bPdfdv-mbBdxf3hqXRl3-28" edge="1">
          <mxGeometry width="160" relative="1" as="geometry">
            <mxPoint x="503" y="117" as="sourcePoint" />
            <mxPoint x="610" y="120" as="targetPoint" />
          </mxGeometry>
        </mxCell>
        <mxCell id="bPdfdv-mbBdxf3hqXRl3-33" value="" style="html=1;verticalAlign=bottom;labelBackgroundColor=none;endArrow=block;endFill=1;rounded=0;" parent="bPdfdv-mbBdxf3hqXRl3-25" edge="1">
          <mxGeometry width="160" relative="1" as="geometry">
            <mxPoint x="60" y="92" as="sourcePoint" />
            <mxPoint x="104" y="92" as="targetPoint" />
          </mxGeometry>
        </mxCell>
        <mxCell id="bPdfdv-mbBdxf3hqXRl3-34" value="" style="html=1;verticalAlign=bottom;labelBackgroundColor=none;endArrow=block;endFill=1;rounded=0;" parent="bPdfdv-mbBdxf3hqXRl3-25" edge="1">
          <mxGeometry width="160" relative="1" as="geometry">
            <mxPoint x="260" y="93" as="sourcePoint" />
            <mxPoint x="357" y="93" as="targetPoint" />
          </mxGeometry>
        </mxCell>
        <mxCell id="bPdfdv-mbBdxf3hqXRl3-35" value="" style="html=1;verticalAlign=bottom;labelBackgroundColor=none;endArrow=block;endFill=1;rounded=0;" parent="bPdfdv-mbBdxf3hqXRl3-25" edge="1">
          <mxGeometry width="160" relative="1" as="geometry">
            <mxPoint x="529" y="93" as="sourcePoint" />
            <mxPoint x="626" y="93" as="targetPoint" />
          </mxGeometry>
        </mxCell>
        <mxCell id="bPdfdv-mbBdxf3hqXRl3-36" value="" style="html=1;verticalAlign=bottom;labelBackgroundColor=none;endArrow=block;endFill=1;rounded=0;" parent="bPdfdv-mbBdxf3hqXRl3-25" edge="1">
          <mxGeometry width="160" relative="1" as="geometry">
            <mxPoint x="359" y="147.5" as="sourcePoint" />
            <mxPoint x="259" y="147.5" as="targetPoint" />
          </mxGeometry>
        </mxCell>
        <mxCell id="bPdfdv-mbBdxf3hqXRl3-37" value="1 : startInterface()" style="text;html=1;strokeColor=none;fillColor=none;align=center;verticalAlign=middle;whiteSpace=wrap;rounded=0;" parent="bPdfdv-mbBdxf3hqXRl3-25" vertex="1">
          <mxGeometry x="240" y="147.5" width="150" height="30" as="geometry" />
        </mxCell>
        <mxCell id="bPdfdv-mbBdxf3hqXRl3-38" value="2 : tryDelete()" style="text;html=1;strokeColor=none;fillColor=none;align=center;verticalAlign=middle;whiteSpace=wrap;rounded=0;" parent="bPdfdv-mbBdxf3hqXRl3-25" vertex="1">
          <mxGeometry x="11" y="61.5" width="150" height="30" as="geometry" />
        </mxCell>
        <mxCell id="bPdfdv-mbBdxf3hqXRl3-39" value="2.1 : deleteMemberAuth()" style="text;html=1;strokeColor=none;fillColor=none;align=center;verticalAlign=middle;whiteSpace=wrap;rounded=0;" parent="bPdfdv-mbBdxf3hqXRl3-25" vertex="1">
          <mxGeometry x="232" y="62.5" width="150" height="30" as="geometry" />
        </mxCell>
        <mxCell id="bPdfdv-mbBdxf3hqXRl3-40" value="2.1.1 : toDeleteMemberAuth()" style="text;html=1;strokeColor=none;fillColor=none;align=center;verticalAlign=middle;whiteSpace=wrap;rounded=0;" parent="bPdfdv-mbBdxf3hqXRl3-25" vertex="1">
          <mxGeometry x="507" y="61.5" width="163" height="30" as="geometry" />
        </mxCell>
        <mxCell id="bPdfdv-mbBdxf3hqXRl3-41" value="&lt;b&gt;sd&amp;nbsp; &lt;/b&gt;login" style="shape=umlFrame;whiteSpace=wrap;html=1;pointerEvents=0;recursiveResize=0;container=1;collapsible=0;width=160;" parent="1" vertex="1">
          <mxGeometry x="30" y="860" width="810" height="230" as="geometry" />
        </mxCell>
        <mxCell id="bPdfdv-mbBdxf3hqXRl3-42" value="Member" style="shape=umlActor;verticalLabelPosition=bottom;verticalAlign=top;html=1;outlineConnect=0;" parent="bPdfdv-mbBdxf3hqXRl3-41" vertex="1">
          <mxGeometry x="20" y="96.25" width="26" height="42.5" as="geometry" />
        </mxCell>
        <mxCell id="bPdfdv-mbBdxf3hqXRl3-43" value=":LoginUI" style="fontStyle=1;whiteSpace=wrap;html=1;" parent="bPdfdv-mbBdxf3hqXRl3-41" vertex="1">
          <mxGeometry x="113" y="102.5" width="140" height="30" as="geometry" />
        </mxCell>
        <mxCell id="bPdfdv-mbBdxf3hqXRl3-44" value=":Member" style="fontStyle=1;whiteSpace=wrap;html=1;" parent="bPdfdv-mbBdxf3hqXRl3-41" vertex="1">
          <mxGeometry x="643" y="102.5" width="140" height="30" as="geometry" />
        </mxCell>
        <mxCell id="bPdfdv-mbBdxf3hqXRl3-45" value=":Login" style="fontStyle=1;whiteSpace=wrap;html=1;" parent="bPdfdv-mbBdxf3hqXRl3-41" vertex="1">
          <mxGeometry x="363" y="102.5" width="140" height="30" as="geometry" />
        </mxCell>
        <mxCell id="bPdfdv-mbBdxf3hqXRl3-46" value="" style="endArrow=none;startArrow=none;endFill=0;startFill=0;endSize=8;html=1;verticalAlign=bottom;labelBackgroundColor=none;strokeWidth=3;rounded=0;" parent="bPdfdv-mbBdxf3hqXRl3-41" edge="1">
          <mxGeometry width="160" relative="1" as="geometry">
            <mxPoint x="53" y="117" as="sourcePoint" />
            <mxPoint x="113" y="117" as="targetPoint" />
          </mxGeometry>
        </mxCell>
        <mxCell id="bPdfdv-mbBdxf3hqXRl3-47" value="" style="endArrow=none;startArrow=none;endFill=0;startFill=0;endSize=8;html=1;verticalAlign=bottom;labelBackgroundColor=none;strokeWidth=3;rounded=0;entryX=0;entryY=0.5;entryDx=0;entryDy=0;" parent="bPdfdv-mbBdxf3hqXRl3-41" target="bPdfdv-mbBdxf3hqXRl3-45" edge="1">
          <mxGeometry width="160" relative="1" as="geometry">
            <mxPoint x="253" y="117" as="sourcePoint" />
            <mxPoint x="360" y="117" as="targetPoint" />
          </mxGeometry>
        </mxCell>
        <mxCell id="bPdfdv-mbBdxf3hqXRl3-48" value="" style="endArrow=none;startArrow=none;endFill=0;startFill=0;endSize=8;html=1;verticalAlign=bottom;labelBackgroundColor=none;strokeWidth=3;rounded=0;entryX=0;entryY=0.5;entryDx=0;entryDy=0;" parent="bPdfdv-mbBdxf3hqXRl3-41" target="bPdfdv-mbBdxf3hqXRl3-44" edge="1">
          <mxGeometry width="160" relative="1" as="geometry">
            <mxPoint x="503" y="117" as="sourcePoint" />
            <mxPoint x="610" y="120" as="targetPoint" />
          </mxGeometry>
        </mxCell>
        <mxCell id="bPdfdv-mbBdxf3hqXRl3-49" value="" style="html=1;verticalAlign=bottom;labelBackgroundColor=none;endArrow=block;endFill=1;rounded=0;" parent="bPdfdv-mbBdxf3hqXRl3-41" edge="1">
          <mxGeometry width="160" relative="1" as="geometry">
            <mxPoint x="60" y="92" as="sourcePoint" />
            <mxPoint x="104" y="92" as="targetPoint" />
          </mxGeometry>
        </mxCell>
        <mxCell id="bPdfdv-mbBdxf3hqXRl3-50" value="" style="html=1;verticalAlign=bottom;labelBackgroundColor=none;endArrow=block;endFill=1;rounded=0;" parent="bPdfdv-mbBdxf3hqXRl3-41" edge="1">
          <mxGeometry width="160" relative="1" as="geometry">
            <mxPoint x="260" y="93" as="sourcePoint" />
            <mxPoint x="357" y="93" as="targetPoint" />
          </mxGeometry>
        </mxCell>
        <mxCell id="bPdfdv-mbBdxf3hqXRl3-51" value="" style="html=1;verticalAlign=bottom;labelBackgroundColor=none;endArrow=block;endFill=1;rounded=0;" parent="bPdfdv-mbBdxf3hqXRl3-41" edge="1">
          <mxGeometry width="160" relative="1" as="geometry">
            <mxPoint x="529" y="93" as="sourcePoint" />
            <mxPoint x="626" y="93" as="targetPoint" />
          </mxGeometry>
        </mxCell>
        <mxCell id="bPdfdv-mbBdxf3hqXRl3-52" value="" style="html=1;verticalAlign=bottom;labelBackgroundColor=none;endArrow=block;endFill=1;rounded=0;" parent="bPdfdv-mbBdxf3hqXRl3-41" edge="1">
          <mxGeometry width="160" relative="1" as="geometry">
            <mxPoint x="359" y="147.5" as="sourcePoint" />
            <mxPoint x="259" y="147.5" as="targetPoint" />
          </mxGeometry>
        </mxCell>
        <mxCell id="bPdfdv-mbBdxf3hqXRl3-53" value="1 : startInterface()" style="text;html=1;strokeColor=none;fillColor=none;align=center;verticalAlign=middle;whiteSpace=wrap;rounded=0;" parent="bPdfdv-mbBdxf3hqXRl3-41" vertex="1">
          <mxGeometry x="240" y="147.5" width="150" height="30" as="geometry" />
        </mxCell>
        <mxCell id="bPdfdv-mbBdxf3hqXRl3-54" value="2 : tryLogin()" style="text;html=1;strokeColor=none;fillColor=none;align=center;verticalAlign=middle;whiteSpace=wrap;rounded=0;" parent="bPdfdv-mbBdxf3hqXRl3-41" vertex="1">
          <mxGeometry x="13" y="57.5" width="150" height="30" as="geometry" />
        </mxCell>
        <mxCell id="bPdfdv-mbBdxf3hqXRl3-55" value="2.1 : tryLogin()" style="text;html=1;strokeColor=none;fillColor=none;align=center;verticalAlign=middle;whiteSpace=wrap;rounded=0;" parent="bPdfdv-mbBdxf3hqXRl3-41" vertex="1">
          <mxGeometry x="232" y="57.5" width="150" height="30" as="geometry" />
        </mxCell>
        <mxCell id="bPdfdv-mbBdxf3hqXRl3-56" value="2.1.1 : checkValidation()" style="text;html=1;strokeColor=none;fillColor=none;align=center;verticalAlign=middle;whiteSpace=wrap;rounded=0;" parent="bPdfdv-mbBdxf3hqXRl3-41" vertex="1">
          <mxGeometry x="507" y="64.5" width="150" height="30" as="geometry" />
        </mxCell>
        <mxCell id="bPdfdv-mbBdxf3hqXRl3-57" value="&lt;b&gt;sd&amp;nbsp;&lt;/b&gt; logout" style="shape=umlFrame;whiteSpace=wrap;html=1;pointerEvents=0;recursiveResize=0;container=1;collapsible=0;width=160;" parent="1" vertex="1">
          <mxGeometry x="30" y="1120" width="810" height="230" as="geometry" />
        </mxCell>
        <mxCell id="bPdfdv-mbBdxf3hqXRl3-58" value="Member" style="shape=umlActor;verticalLabelPosition=bottom;verticalAlign=top;html=1;outlineConnect=0;" parent="bPdfdv-mbBdxf3hqXRl3-57" vertex="1">
          <mxGeometry x="20" y="96.25" width="26" height="42.5" as="geometry" />
        </mxCell>
        <mxCell id="bPdfdv-mbBdxf3hqXRl3-59" value=":LogoutUI" style="fontStyle=1;whiteSpace=wrap;html=1;" parent="bPdfdv-mbBdxf3hqXRl3-57" vertex="1">
          <mxGeometry x="113" y="102.5" width="140" height="30" as="geometry" />
        </mxCell>
        <mxCell id="bPdfdv-mbBdxf3hqXRl3-60" value=":Logout" style="fontStyle=1;whiteSpace=wrap;html=1;" parent="bPdfdv-mbBdxf3hqXRl3-57" vertex="1">
          <mxGeometry x="363" y="102.5" width="140" height="30" as="geometry" />
        </mxCell>
        <mxCell id="bPdfdv-mbBdxf3hqXRl3-61" value="" style="endArrow=none;startArrow=none;endFill=0;startFill=0;endSize=8;html=1;verticalAlign=bottom;labelBackgroundColor=none;strokeWidth=3;rounded=0;" parent="bPdfdv-mbBdxf3hqXRl3-57" edge="1">
          <mxGeometry width="160" relative="1" as="geometry">
            <mxPoint x="53" y="117" as="sourcePoint" />
            <mxPoint x="113" y="117" as="targetPoint" />
          </mxGeometry>
        </mxCell>
        <mxCell id="bPdfdv-mbBdxf3hqXRl3-62" value="" style="endArrow=none;startArrow=none;endFill=0;startFill=0;endSize=8;html=1;verticalAlign=bottom;labelBackgroundColor=none;strokeWidth=3;rounded=0;entryX=0;entryY=0.5;entryDx=0;entryDy=0;" parent="bPdfdv-mbBdxf3hqXRl3-57" target="bPdfdv-mbBdxf3hqXRl3-60" edge="1">
          <mxGeometry width="160" relative="1" as="geometry">
            <mxPoint x="253" y="117" as="sourcePoint" />
            <mxPoint x="360" y="117" as="targetPoint" />
          </mxGeometry>
        </mxCell>
        <mxCell id="bPdfdv-mbBdxf3hqXRl3-63" value="" style="html=1;verticalAlign=bottom;labelBackgroundColor=none;endArrow=block;endFill=1;rounded=0;" parent="bPdfdv-mbBdxf3hqXRl3-57" edge="1">
          <mxGeometry width="160" relative="1" as="geometry">
            <mxPoint x="60" y="92" as="sourcePoint" />
            <mxPoint x="104" y="92" as="targetPoint" />
          </mxGeometry>
        </mxCell>
        <mxCell id="bPdfdv-mbBdxf3hqXRl3-64" value="" style="html=1;verticalAlign=bottom;labelBackgroundColor=none;endArrow=block;endFill=1;rounded=0;" parent="bPdfdv-mbBdxf3hqXRl3-57" edge="1">
          <mxGeometry width="160" relative="1" as="geometry">
            <mxPoint x="260" y="93" as="sourcePoint" />
            <mxPoint x="357" y="93" as="targetPoint" />
          </mxGeometry>
        </mxCell>
        <mxCell id="bPdfdv-mbBdxf3hqXRl3-65" value="" style="html=1;verticalAlign=bottom;labelBackgroundColor=none;endArrow=block;endFill=1;rounded=0;" parent="bPdfdv-mbBdxf3hqXRl3-57" edge="1">
          <mxGeometry width="160" relative="1" as="geometry">
            <mxPoint x="359" y="147.5" as="sourcePoint" />
            <mxPoint x="259" y="147.5" as="targetPoint" />
          </mxGeometry>
        </mxCell>
        <mxCell id="bPdfdv-mbBdxf3hqXRl3-66" value="1 : startInterface()" style="text;html=1;strokeColor=none;fillColor=none;align=center;verticalAlign=middle;whiteSpace=wrap;rounded=0;" parent="bPdfdv-mbBdxf3hqXRl3-57" vertex="1">
          <mxGeometry x="240" y="147.5" width="150" height="30" as="geometry" />
        </mxCell>
        <mxCell id="bPdfdv-mbBdxf3hqXRl3-67" value="2 : tryLogout()" style="text;html=1;strokeColor=none;fillColor=none;align=center;verticalAlign=middle;whiteSpace=wrap;rounded=0;" parent="bPdfdv-mbBdxf3hqXRl3-57" vertex="1">
          <mxGeometry x="20" y="57.5" width="150" height="30" as="geometry" />
        </mxCell>
        <mxCell id="bPdfdv-mbBdxf3hqXRl3-68" value="2.1 : tryLogout()" style="text;html=1;strokeColor=none;fillColor=none;align=center;verticalAlign=middle;whiteSpace=wrap;rounded=0;" parent="bPdfdv-mbBdxf3hqXRl3-57" vertex="1">
          <mxGeometry x="232" y="57.5" width="150" height="30" as="geometry" />
        </mxCell>
        <mxCell id="jLVkTdFOZGAqYjLsURqS-4" value=":Member" style="fontStyle=1;whiteSpace=wrap;html=1;" vertex="1" parent="bPdfdv-mbBdxf3hqXRl3-57">
          <mxGeometry x="610" y="102.5" width="140" height="30" as="geometry" />
        </mxCell>
        <mxCell id="jLVkTdFOZGAqYjLsURqS-5" value="" style="endArrow=none;startArrow=none;endFill=0;startFill=0;endSize=8;html=1;verticalAlign=bottom;labelBackgroundColor=none;strokeWidth=3;rounded=0;entryX=0;entryY=0.5;entryDx=0;entryDy=0;" edge="1" parent="bPdfdv-mbBdxf3hqXRl3-57">
          <mxGeometry width="160" relative="1" as="geometry">
            <mxPoint x="502" y="115.5" as="sourcePoint" />
            <mxPoint x="612" y="116.5" as="targetPoint" />
          </mxGeometry>
        </mxCell>
        <mxCell id="jLVkTdFOZGAqYjLsURqS-6" value="2.1.1 : toLogout()" style="text;html=1;strokeColor=none;fillColor=none;align=center;verticalAlign=middle;whiteSpace=wrap;rounded=0;" vertex="1" parent="bPdfdv-mbBdxf3hqXRl3-57">
          <mxGeometry x="480" y="58.5" width="150" height="30" as="geometry" />
        </mxCell>
        <mxCell id="jLVkTdFOZGAqYjLsURqS-7" value="" style="html=1;verticalAlign=bottom;labelBackgroundColor=none;endArrow=block;endFill=1;rounded=0;" edge="1" parent="bPdfdv-mbBdxf3hqXRl3-57">
          <mxGeometry width="160" relative="1" as="geometry">
            <mxPoint x="510" y="96.25" as="sourcePoint" />
            <mxPoint x="607" y="96.25" as="targetPoint" />
          </mxGeometry>
        </mxCell>
      </root>
    </mxGraphModel>
  </diagram>
</mxfile>
